# xmcd
#
# Track frame offsets:
#	182
#	12882
#	24627
#	37027
#	53525
#	64925
#	80945
#	93735
#	104245
#	118062
#	131827
#	143295
#	154607
#	165405
#	177860
#	190632
#	201755
#	214972
#
# Disc length: 3009 seconds
# Revision: 0
# Processed by: cddbd v1.5.2PL0 Copyright (c) Steve Scherf et al.
# Submitted via: dBpowerAMP V12.0
#
DISCID=fe0bbf12
DTITLE=Manolo Escobar - La Copla: Mi carro
DYEAR=1991
DGENRE=Flamenco
TTITLE0=Mi carro
TTITLE1=El porompompero
TTITLE2=La minifalda
TTITLE3=Y viva España
TTITLE4=Madrecita María del Carmen
TTITLE5=Tu nombre de Anita
TTITLE6=Yo soy un hombre del campo
TTITLE7=Un beso en el puerto
TTITLE8=La morena de mi copla
TTITLE9=Mujeres y vino
TTITLE10=Viva Almería
TTITLE11=¡Ay, caridad!
TTITLE12=Que guapa estás
TTITLE13=Niña bonita
TTITLE14=Mi cortijo
TTITLE15=La rumbera
TTITLE16=Mi pequeña flor
TTITLE17=Arremángate
EXTD=
EXTT0=
EXTT1=
EXTT2=
EXTT3=
EXTT4=
EXTT5=
EXTT6=
EXTT7=
EXTT8=
EXTT9=
EXTT10=
EXTT11=
EXTT12=
EXTT13=
EXTT14=
EXTT15=
EXTT16=
EXTT17=
PLAYORDER=
